<svg xmlns:xlink="http://www.w3.org/1999/xlink" width="460.500087pt" height="230.15952pt" viewBox="0 0 460.500087 230.15952" xmlns="http://www.w3.org/2000/svg" version="1.1">
 <defs>
  <style type="text/css">*{stroke-linejoin: round; stroke-linecap: butt}</style>
 </defs>
 <g id="figure_1">
  <g id="patch_1">
   <path d="M 0 230.15952 
L 460.500087 230.15952 
L 460.500087 0 
L 0 0 
L 0 230.15952 
z
" style="fill: none"/>
  </g>
  <g id="axes_1">
   <g id="patch_2">
    <path d="M 61.874844 193.891082 
L 449.067733 193.891082 
L 449.067733 2.88 
L 61.874844 2.88 
L 61.874844 193.891082 
z
" style="fill: none"/>
   </g>
   <g id="matplotlib.axis_1">
    <g id="xtick_1">
     <g id="line2d_1"/>
     <g id="text_1">
      <text style="font-size: 9px; font-family: 'DejaVu Sans'; text-anchor: middle; fill: #87867f" x="79.474521" y="207.729676" transform="rotate(-0 79.474521 207.729676)">2026-04-20</text>
     </g>
    </g>
    <g id="xtick_2">
     <g id="line2d_2"/>
     <g id="text_2">
      <text style="font-size: 9px; font-family: 'DejaVu Sans'; text-anchor: middle; fill: #87867f" x="167.472904" y="207.729676" transform="rotate(-0 167.472904 207.729676)">2026-04-27</text>
     </g>
    </g>
    <g id="xtick_3">
     <g id="line2d_3"/>
     <g id="text_3">
      <text style="font-size: 9px; font-family: 'DejaVu Sans'; text-anchor: middle; fill: #87867f" x="255.471288" y="207.729676" transform="rotate(-0 255.471288 207.729676)">2026-05-04</text>
     </g>
    </g>
    <g id="xtick_4">
     <g id="line2d_4"/>
     <g id="text_4">
      <text style="font-size: 9px; font-family: 'DejaVu Sans'; text-anchor: middle; fill: #87867f" x="343.469672" y="207.729676" transform="rotate(-0 343.469672 207.729676)">2026-05-11</text>
     </g>
    </g>
    <g id="xtick_5">
     <g id="line2d_5"/>
     <g id="text_5">
      <text style="font-size: 9px; font-family: 'DejaVu Sans'; text-anchor: middle; fill: #87867f" x="431.468056" y="207.729676" transform="rotate(-0 431.468056 207.729676)">2026-05-18</text>
     </g>
    </g>
    <g id="text_6">
     <text style="font-size: 10px; font-family: 'DejaVu Sans'; text-anchor: middle; fill: #3d3d3a" x="255.471288" y="225.199832" transform="rotate(-0 255.471288 225.199832)">Evaluation Week</text>
    </g>
   </g>
   <g id="matplotlib.axis_2">
    <g id="ytick_1">
     <g id="line2d_6">
      <path d="M 61.874844 177.281423 
L 449.067733 177.281423 
" clip-path="url(#p44f8029cec)" style="fill: none; stroke: #ded9cd; stroke-width: 0.8; stroke-linecap: square"/>
     </g>
     <g id="line2d_7"/>
     <g id="text_7">
      <text style="font-size: 9px; font-family: 'DejaVu Sans'; text-anchor: end; fill: #87867f" x="54.874844" y="180.70072" transform="rotate(-0 54.874844 180.70072)">80.0%</text>
     </g>
    </g>
    <g id="ytick_2">
     <g id="line2d_8">
      <path d="M 61.874844 135.757275 
L 449.067733 135.757275 
" clip-path="url(#p44f8029cec)" style="fill: none; stroke: #ded9cd; stroke-width: 0.8; stroke-linecap: square"/>
     </g>
     <g id="line2d_9"/>
     <g id="text_8">
      <text style="font-size: 9px; font-family: 'DejaVu Sans'; text-anchor: end; fill: #87867f" x="54.874844" y="139.176572" transform="rotate(-0 54.874844 139.176572)">85.0%</text>
     </g>
    </g>
    <g id="ytick_3">
     <g id="line2d_10">
      <path d="M 61.874844 94.233126 
L 449.067733 94.233126 
" clip-path="url(#p44f8029cec)" style="fill: none; stroke: #ded9cd; stroke-width: 0.8; stroke-linecap: square"/>
     </g>
     <g id="line2d_11"/>
     <g id="text_9">
      <text style="font-size: 9px; font-family: 'DejaVu Sans'; text-anchor: end; fill: #87867f" x="54.874844" y="97.652423" transform="rotate(-0 54.874844 97.652423)">90.0%</text>
     </g>
    </g>
    <g id="ytick_4">
     <g id="line2d_12">
      <path d="M 61.874844 52.708978 
L 449.067733 52.708978 
" clip-path="url(#p44f8029cec)" style="fill: none; stroke: #ded9cd; stroke-width: 0.8; stroke-linecap: square"/>
     </g>
     <g id="line2d_13"/>
     <g id="text_10">
      <text style="font-size: 9px; font-family: 'DejaVu Sans'; text-anchor: end; fill: #87867f" x="54.874844" y="56.128275" transform="rotate(-0 54.874844 56.128275)">95.0%</text>
     </g>
    </g>
    <g id="ytick_5">
     <g id="line2d_14">
      <path d="M 61.874844 11.18483 
L 449.067733 11.18483 
" clip-path="url(#p44f8029cec)" style="fill: none; stroke: #ded9cd; stroke-width: 0.8; stroke-linecap: square"/>
     </g>
     <g id="line2d_15"/>
     <g id="text_11">
      <text style="font-size: 9px; font-family: 'DejaVu Sans'; text-anchor: end; fill: #87867f" x="54.874844" y="14.604127" transform="rotate(-0 54.874844 14.604127)">100.0%</text>
     </g>
    </g>
    <g id="text_12">
     <text style="font-size: 10px; font-family: 'DejaVu Sans'; text-anchor: middle; fill: #3d3d3a" x="10.478438" y="98.385541" transform="rotate(-90 10.478438 98.385541)">Static Pass Rate</text>
    </g>
   </g>
   <g id="patch_3">
    <path d="M 61.874844 193.891082 
L 61.874844 2.88 
" style="fill: none; stroke: #d1cfc5; stroke-linejoin: miter; stroke-linecap: square"/>
   </g>
   <g id="patch_4">
    <path d="M 61.874844 193.891082 
L 449.067733 193.891082 
" style="fill: none; stroke: #d1cfc5; stroke-linejoin: miter; stroke-linecap: square"/>
   </g>
   <g id="line2d_16">
    <path d="M 79.474521 102.537956 
L 167.472904 69.318637 
L 255.471288 44.404148 
L 343.469672 27.794489 
L 431.468056 19.489659 
" clip-path="url(#p44f8029cec)" style="fill: none; stroke: #d97757; stroke-width: 2; stroke-linecap: square"/>
    <defs>
     <path id="m8c8cd802da" d="M 0 2.5 
C 0.663008 2.5 1.29895 2.236584 1.767767 1.767767 
C 2.236584 1.29895 2.5 0.663008 2.5 0 
C 2.5 -0.663008 2.236584 -1.29895 1.767767 -1.767767 
C 1.29895 -2.236584 0.663008 -2.5 0 -2.5 
C -0.663008 -2.5 -1.29895 -2.236584 -1.767767 -1.767767 
C -2.236584 -1.29895 -2.5 -0.663008 -2.5 0 
C -2.5 0.663008 -2.236584 1.29895 -1.767767 1.767767 
C -1.29895 2.236584 -0.663008 2.5 0 2.5 
z
" style="stroke: #d97757"/>
    </defs>
    <g clip-path="url(#p44f8029cec)">
     <use xlink:href="#m8c8cd802da" x="79.474521" y="102.537956" style="fill: #d97757; stroke: #d97757"/>
     <use xlink:href="#m8c8cd802da" x="167.472904" y="69.318637" style="fill: #d97757; stroke: #d97757"/>
     <use xlink:href="#m8c8cd802da" x="255.471288" y="44.404148" style="fill: #d97757; stroke: #d97757"/>
     <use xlink:href="#m8c8cd802da" x="343.469672" y="27.794489" style="fill: #d97757; stroke: #d97757"/>
     <use xlink:href="#m8c8cd802da" x="431.468056" y="19.489659" style="fill: #d97757; stroke: #d97757"/>
    </g>
   </g>
   <g id="line2d_17">
    <path d="M 79.474521 127.452445 
L 167.472904 85.928297 
L 255.471288 61.013808 
L 343.469672 36.099319 
L 431.468056 27.794489 
" clip-path="url(#p44f8029cec)" style="fill: none; stroke: #788c5d; stroke-width: 2; stroke-linecap: square"/>
    <defs>
     <path id="m1dcadaa383" d="M 0 2.5 
C 0.663008 2.5 1.29895 2.236584 1.767767 1.767767 
C 2.236584 1.29895 2.5 0.663008 2.5 0 
C 2.5 -0.663008 2.236584 -1.29895 1.767767 -1.767767 
C 1.29895 -2.236584 0.663008 -2.5 0 -2.5 
C -0.663008 -2.5 -1.29895 -2.236584 -1.767767 -1.767767 
C -2.236584 -1.29895 -2.5 -0.663008 -2.5 0 
C -2.5 0.663008 -2.236584 1.29895 -1.767767 1.767767 
C -1.29895 2.236584 -0.663008 2.5 0 2.5 
z
" style="stroke: #788c5d"/>
    </defs>
    <g clip-path="url(#p44f8029cec)">
     <use xlink:href="#m1dcadaa383" x="79.474521" y="127.452445" style="fill: #788c5d; stroke: #788c5d"/>
     <use xlink:href="#m1dcadaa383" x="167.472904" y="85.928297" style="fill: #788c5d; stroke: #788c5d"/>
     <use xlink:href="#m1dcadaa383" x="255.471288" y="61.013808" style="fill: #788c5d; stroke: #788c5d"/>
     <use xlink:href="#m1dcadaa383" x="343.469672" y="36.099319" style="fill: #788c5d; stroke: #788c5d"/>
     <use xlink:href="#m1dcadaa383" x="431.468056" y="27.794489" style="fill: #788c5d; stroke: #788c5d"/>
    </g>
   </g>
   <g id="line2d_18">
    <path d="M 79.474521 160.671764 
L 167.472904 119.147615 
L 255.471288 85.928297 
L 343.469672 61.013808 
L 431.468056 44.404148 
" clip-path="url(#p44f8029cec)" style="fill: none; stroke: #6a8caf; stroke-width: 2; stroke-linecap: square"/>
    <defs>
     <path id="md8a1842ad9" d="M 0 2.5 
C 0.663008 2.5 1.29895 2.236584 1.767767 1.767767 
C 2.236584 1.29895 2.5 0.663008 2.5 0 
C 2.5 -0.663008 2.236584 -1.29895 1.767767 -1.767767 
C 1.29895 -2.236584 0.663008 -2.5 0 -2.5 
C -0.663008 -2.5 -1.29895 -2.236584 -1.767767 -1.767767 
C -2.236584 -1.29895 -2.5 -0.663008 -2.5 0 
C -2.5 0.663008 -2.236584 1.29895 -1.767767 1.767767 
C -1.29895 2.236584 -0.663008 2.5 0 2.5 
z
" style="stroke: #6a8caf"/>
    </defs>
    <g clip-path="url(#p44f8029cec)">
     <use xlink:href="#md8a1842ad9" x="79.474521" y="160.671764" style="fill: #6a8caf; stroke: #6a8caf"/>
     <use xlink:href="#md8a1842ad9" x="167.472904" y="119.147615" style="fill: #6a8caf; stroke: #6a8caf"/>
     <use xlink:href="#md8a1842ad9" x="255.471288" y="85.928297" style="fill: #6a8caf; stroke: #6a8caf"/>
     <use xlink:href="#md8a1842ad9" x="343.469672" y="61.013808" style="fill: #6a8caf; stroke: #6a8caf"/>
     <use xlink:href="#md8a1842ad9" x="431.468056" y="44.404148" style="fill: #6a8caf; stroke: #6a8caf"/>
    </g>
   </g>
   <g id="legend_1">
    <g id="line2d_19">
     <path d="M 332.595077 154.348739 
L 338.895077 154.348739 
L 345.195077 154.348739 
" style="fill: none; stroke: #d97757; stroke-width: 2; stroke-linecap: square"/>
     <g>
      <use xlink:href="#m8c8cd802da" x="338.895077" y="154.348739" style="fill: #d97757; stroke: #d97757"/>
     </g>
    </g>
    <g id="text_13">
     <text style="font-size: 9px; font-family: 'DejaVu Sans'; text-anchor: start; fill: #141413" x="349.245077" y="157.498739" transform="rotate(-0 349.245077 157.498739)">Timeline</text>
    </g>
    <g id="line2d_20">
     <path d="M 332.595077 167.559051 
L 338.895077 167.559051 
L 345.195077 167.559051 
" style="fill: none; stroke: #788c5d; stroke-width: 2; stroke-linecap: square"/>
     <g>
      <use xlink:href="#m1dcadaa383" x="338.895077" y="167.559051" style="fill: #788c5d; stroke: #788c5d"/>
     </g>
    </g>
    <g id="text_14">
     <text style="font-size: 9px; font-family: 'DejaVu Sans'; text-anchor: start; fill: #141413" x="349.245077" y="170.709051" transform="rotate(-0 349.245077 170.709051)">Design System</text>
    </g>
    <g id="line2d_21">
     <path d="M 332.595077 180.769364 
L 338.895077 180.769364 
L 345.195077 180.769364 
" style="fill: none; stroke: #6a8caf; stroke-width: 2; stroke-linecap: square"/>
     <g>
      <use xlink:href="#md8a1842ad9" x="338.895077" y="180.769364" style="fill: #6a8caf; stroke: #6a8caf"/>
     </g>
    </g>
    <g id="text_15">
     <text style="font-size: 9px; font-family: 'DejaVu Sans'; text-anchor: start; fill: #141413" x="349.245077" y="183.919364" transform="rotate(-0 349.245077 183.919364)">Component Variants</text>
    </g>
   </g>
  </g>
 </g>
 <defs>
  <clipPath id="p44f8029cec">
   <rect x="61.874844" y="2.88" width="387.192889" height="191.011082"/>
  </clipPath>
 </defs>
</svg>
